<svg xmlns="http://www.w3.org/2000/svg" viewBox="0 0 351 70" width="351" height="70" role="img" aria-label="MeritLense">
<g transform="translate(4,4) scale(0.6458333333333334)" fill="none" stroke-linecap="round" stroke-linejoin="round">
  <path d="M10 48 Q48 12 86 48 Q48 84 10 48 Z" stroke="#232B5F" stroke-width="7"/>
  <circle cx="48" cy="48" r="21" stroke="#232B5F" stroke-width="7"/>
  <path d="M39.5 48.5 L45.5 55 L57.5 41.5" stroke="#19B37A" stroke-width="7"/>
</g>
<g transform="translate(82,51.56) scale(0.046)" fill="#232B5F"><path d="M90 0V-730H284L467 -294H485L667 -730H864V0H723V-623L741 -621L543.5 -149.0H399L200.5 -621.0L220 -623V0Z"/><path d="M1276 19Q1206 19 1153.5 -5.0Q1101 -29 1066.5 -69.25Q1032.0 -109.5 1014.5 -159.5Q997.0 -209.5 997 -262V-281Q997 -335 1014.5 -385.25Q1032.0 -435.5 1066.25 -475.25Q1100.5 -515.0 1151.75 -538.5Q1203 -562 1270 -562Q1358 -562 1417.25 -523.25Q1476.5 -484.5 1506.75 -422.25Q1537 -360 1537 -288V-237.5H1056.0V-322.5H1449.5L1407 -281Q1407 -333 1391.75 -370.0Q1376.5 -407.0 1346.25 -427.0Q1316 -447 1270 -447Q1223.5 -447.0 1191.5 -425.75Q1159.5 -404.5 1143.25 -365.25Q1127 -326 1127 -271Q1127.0 -219.5 1142.75 -180.0Q1158.5 -140.5 1191.5 -118.25Q1224.5 -96.0 1276 -96Q1326.5 -96.0 1358.5 -116.5Q1390.5 -137.0 1399.5 -166.5H1527.5Q1516 -111 1481.75 -69.0Q1447.5 -27.0 1395.25 -4.0Q1343 19 1276 19Z"/><path d="M1653 0V-543H1763V-313H1760Q1760.0 -429.5 1810.0 -489.75Q1860 -550 1957 -550H1977V-429H1939Q1868.5 -429.0 1830.25 -391.25Q1792.0 -353.5 1792.0 -282.5V0Z"/><path d="M2096 0V-543H2235V0ZM2020 -439V-543H2235V-439ZM2146.75 -608.0Q2106 -608 2086.5 -629.25Q2067.0 -650.5 2067.0 -683.5Q2067.0 -716.5 2086.559523809524 -737.75Q2106.1190476190477 -759.0 2146.5 -759.0Q2187.5 -759.0 2206.75 -737.75Q2226.0 -716.5 2226.0 -683.5Q2226.0 -650.5 2206.75 -629.25Q2187.5 -608.0 2146.75 -608.0Z"/><path d="M2630.5 7.0Q2555.5 7.0 2507.0 -12.5Q2458.5 -32.0 2434.75 -78.25Q2411.0 -124.5 2411.0 -203.5L2411.5 -696.0H2541.5L2541 -195Q2541 -155 2562.5 -133.5Q2584 -112 2624 -112H2709V7ZM2325 -441V-543H2709V-441Z"/></g>
<g transform="translate(209.862,51.56) scale(0.046)" fill="#8F94CE"><path d="M90 0V-730H232V0ZM212 0V-125H527V0Z"/><path d="M869 19Q799 19 746.5 -5.0Q694 -29 659.5 -69.25Q625.0 -109.5 607.5 -159.5Q590.0 -209.5 590 -262V-281Q590 -335 607.5 -385.25Q625.0 -435.5 659.25 -475.25Q693.5 -515.0 744.75 -538.5Q796 -562 863 -562Q951 -562 1010.25 -523.25Q1069.5 -484.5 1099.75 -422.25Q1130 -360 1130 -288V-237.5H649.0V-322.5H1042.5L1000 -281Q1000 -333 984.75 -370.0Q969.5 -407.0 939.25 -427.0Q909 -447 863 -447Q816.5 -447.0 784.5 -425.75Q752.5 -404.5 736.25 -365.25Q720 -326 720 -271Q720.0 -219.5 735.75 -180.0Q751.5 -140.5 784.5 -118.25Q817.5 -96.0 869 -96Q919.5 -96.0 951.5 -116.5Q983.5 -137.0 992.5 -166.5H1120.5Q1109 -111 1074.75 -69.0Q1040.5 -27.0 988.25 -4.0Q936 19 869 19Z"/><path d="M1246 0V-543H1356V-310H1346Q1346.0 -392.5 1367.75 -448.0Q1389.5 -503.5 1433.25 -531.75Q1477 -560 1541.5 -560.0H1547.5Q1645 -560 1695.0 -497.25Q1745.0 -434.5 1745.0 -310.5V0H1606V-323Q1606 -373 1577.25 -404.0Q1548.5 -435.0 1498.5 -435.0Q1447.5 -435.0 1416.25 -403.25Q1385.0 -371.5 1385 -319V0Z"/><path d="M2091 17Q1978.5 17.0 1915.25 -30.25Q1852.0 -77.5 1848.5 -161.5H1973.5Q1976.5 -133.5 2004.75 -110.75Q2033 -88 2093 -88Q2142.5 -88.0 2172.25 -106.0Q2202 -124 2202.0 -154.5Q2202.0 -181.5 2179.5 -197.5Q2157.0 -213.5 2102.5 -219.0L2054.5 -224.0Q1963.5 -233.5 1914.5 -275.75Q1865.5 -318.0 1865.5 -387.5Q1865.5 -443.5 1893.5 -481.5Q1921.5 -519.5 1971.0 -539.25Q2020.5 -559.0 2084.5 -559.0Q2185 -559 2247.0 -514.75Q2309.0 -470.5 2312.0 -385.5H2187.0Q2184.5 -414.0 2158.75 -434.0Q2133 -454 2083.5 -454.0Q2040 -454 2015.75 -437.0Q1991.5 -420.0 1991.5 -392.5Q1991.5 -367.0 2011.0 -353.0Q2030.5 -339.0 2074.5 -334.0L2122.5 -329.0Q2218.5 -319.0 2273.25 -276.0Q2328 -233 2328.0 -159.5Q2328 -106 2298.5 -66.25Q2269.0 -26.5 2215.75 -4.75Q2162.5 17.0 2091 17Z"/><path d="M2686 19Q2616 19 2563.5 -5.0Q2511 -29 2476.5 -69.25Q2442.0 -109.5 2424.5 -159.5Q2407.0 -209.5 2407 -262V-281Q2407 -335 2424.5 -385.25Q2442.0 -435.5 2476.25 -475.25Q2510.5 -515.0 2561.75 -538.5Q2613 -562 2680 -562Q2768 -562 2827.25 -523.25Q2886.5 -484.5 2916.75 -422.25Q2947 -360 2947 -288V-237.5H2466.0V-322.5H2859.5L2817 -281Q2817 -333 2801.75 -370.0Q2786.5 -407.0 2756.25 -427.0Q2726 -447 2680 -447Q2633.5 -447.0 2601.5 -425.75Q2569.5 -404.5 2553.25 -365.25Q2537 -326 2537 -271Q2537.0 -219.5 2552.75 -180.0Q2568.5 -140.5 2601.5 -118.25Q2634.5 -96.0 2686 -96Q2736.5 -96.0 2768.5 -116.5Q2800.5 -137.0 2809.5 -166.5H2937.5Q2926 -111 2891.75 -69.0Q2857.5 -27.0 2805.25 -4.0Q2753 19 2686 19Z"/></g>
</svg>