<svg xmlns="http://www.w3.org/2000/svg" viewBox="0 0 348 63" width="348" height="63" role="img" aria-label="MeritLense">
<g transform="translate(4,4) scale(0.44)">
<path d="M 10,108 C 10,88 10,80 23,66 C 36,52 36,44 36,24" stroke="#D8B4FE" stroke-width="17" fill="none" stroke-linecap="round"/>
<path d="M 56,108 C 56,88 56,80 69,66 C 82,52 82,44 82,24" stroke="#A78BFA" stroke-width="17" fill="none" stroke-linecap="round"/>
<path d="M 102,108 C 102,88 102,80 115,66 C 128,52 128,44 128,24" stroke="#8B5CF6" stroke-width="17" fill="none" stroke-linecap="round"/>
<path d="M140,108 C140,88 140,80 153,66 C166,52 166,44 166,40 C166,26 177,16 192,16 L214,16 C234,16 248,30 248,50 L248,74 C248,94 234,108 214,108 L140,108 Z" fill="#7C3AED"/>
<circle cx="202" cy="62" r="31" fill="#FFFFFF"/>
<path d="M188,63 L198,74 L218,50" stroke="#10B981" stroke-width="10" fill="none" stroke-linecap="round" stroke-linejoin="round"/>
</g>
<g transform="translate(131.3,39.9) scale(0.024)" fill="#1C1E26"><path d="M56 0V-720H193L463 -398L732 -720H870V0H749V-552L463 -211L176 -551V0Z"/><path d="M1096 0V-720H1757V-599H1217V-421H1652V-299H1217V-121H1757V0Z"/><path d="M2552 0 2331 -264H2488L2687 -28V0ZM1970 0V-719H2555Q2592 -719 2622.5 -700.5Q2653 -682 2671.5 -651.5Q2690 -621 2690 -584V-386Q2690 -350 2671.5 -319.0Q2653 -288 2622.5 -270.0Q2592 -252 2555 -252L2090 -251V0ZM2108 -373H2550Q2558 -373 2563.5 -378.0Q2569 -383 2569 -391V-581Q2569 -588 2563.5 -593.5Q2558 -599 2550 -599H2108Q2101 -599 2095.5 -593.5Q2090 -588 2090 -581V-391Q2090 -383 2095.5 -378.0Q2101 -373 2108 -373Z"/><path d="M2897 0V-720H3016V0Z"/><path d="M3504 0V-599H3204V-720H3924V-599H3625V0Z"/></g>
<g transform="translate(234.3,39.9) scale(0.024)" fill="#7C3AED"><path d="M57 0V-721H177V-121H777V0Z"/><path d="M947 0V-720H1608V-599H1068V-421H1503V-299H1068V-121H1608V0Z"/><path d="M1821 0V-720H1958L2420 -170V-720H2541V0H2404L1941 -551V0Z"/><path d="M2894 0Q2857 0 2826.5 -18.0Q2796 -36 2778.0 -67.0Q2760 -98 2760 -135V-183H2880V-139Q2880 -131 2885.0 -126.0Q2890 -121 2898 -121H3340Q3348 -121 3353.5 -126.0Q3359 -131 3359 -139V-282Q3359 -289 3353.5 -294.0Q3348 -299 3340 -299H2894Q2857 -299 2826.5 -317.5Q2796 -336 2778.0 -366.5Q2760 -397 2760 -434V-585Q2760 -622 2778.0 -653.0Q2796 -684 2826.5 -702.0Q2857 -720 2894 -720H3345Q3382 -720 3412.5 -702.0Q3443 -684 3461.5 -653.0Q3480 -622 3480 -585V-537H3359V-581Q3359 -589 3353.5 -594.0Q3348 -599 3340 -599H2898Q2890 -599 2885.0 -594.0Q2880 -589 2880 -581V-438Q2880 -431 2885.0 -426.0Q2890 -421 2898 -421H3345Q3382 -421 3412.5 -402.5Q3443 -384 3461.5 -353.5Q3480 -323 3480 -286V-135Q3480 -98 3461.5 -67.0Q3443 -36 3412.5 -18.0Q3382 0 3345 0Z"/><path d="M3700 0V-720H4361V-599H3821V-421H4256V-299H3821V-121H4361V0Z"/></g>
</svg>